<?xml version="1.0" encoding="utf-8"?>
<!-- Generator: Adobe Illustrator 25.0.1, SVG Export Plug-In . SVG Version: 6.00 Build 0)  -->
<svg version="1.1" xmlns="http://www.w3.org/2000/svg" xmlns:xlink="http://www.w3.org/1999/xlink" x="0px" y="0px"
	 viewBox="0 0 512 512" style="enable-background:new 0 0 512 512;" xml:space="preserve">
<style type="text/css">
	.st0{stroke:#000000;stroke-width:19.8;stroke-linejoin:round;stroke-miterlimit:10;}
	.st1{fill:none;stroke:#000000;stroke-width:10.8518;stroke-linecap:round;stroke-miterlimit:10;}
	.st2{fill:none;stroke:#000000;stroke-width:7.2346;stroke-linecap:round;stroke-miterlimit:10;}
	.st3{stroke:#000000;stroke-width:0.9043;stroke-linecap:round;stroke-miterlimit:10;}
	.st4{stroke:#000000;stroke-width:14.6231;stroke-linecap:round;stroke-miterlimit:10;stroke-dasharray:54.2592,3.6173;}
	.st5{fill:none;stroke:#FFFFFF;stroke-width:1.8086;stroke-linecap:round;stroke-miterlimit:10;}
	.st6{fill:#FFFFFF;stroke:#FFFFFF;stroke-width:1.8086;stroke-linecap:round;stroke-miterlimit:10;}
	.st7{stroke:#000000;stroke-width:1.8086;stroke-linecap:round;stroke-miterlimit:10;}
	.st8{fill:none;stroke:#000000;stroke-width:14.6231;stroke-linecap:round;stroke-miterlimit:10;}
</style>
<g id="Capa_1">
</g>
<g id="Capa_2">
	<polygon class="st0" points="196.6,497 230.5,278.2 110.7,278.2 146.1,23.8 314.6,23.8 277.2,161.6 404.3,161.6 	"/>
	<g>
		<path class="st1" d="M146-67.3L134.8-85c0,0-7.5-11.6,0-24.6s20.8-11.3,20.8-11.3"/>
		<path class="st1" d="M164-67.3L175.3-85c0,0,7.5-11.6,0-24.6c-7.5-13-20.8-11.3-20.8-11.3"/>
		<path class="st2" d="M142.8-95.1c0,0,2.1-17.8,15.4-15"/>
		<path class="st3" d="M142.8-59.3H170c0,0,1.3,17.2-13.6,16.4S142.8-59.3,142.8-59.3z"/>
	</g>
	<g>
		<path class="st4" d="M507.6-61.4h-86.2c-0.3,0-0.5-0.2-0.5-0.5v-40c0-0.3,0.2-0.5,0.5-0.5h86.2c0.3,0,0.5,0.2,0.5,0.5v40
			C508.1-61.7,507.9-61.4,507.6-61.4z"/>
		<rect x="429.2" y="-95.3" class="st5" width="71.8" height="25.6"/>
		<rect x="500.9" y="-88.1" class="st6" width="5.6" height="8.7"/>
		<path class="st7" d="M518.1-67h-5.8c-0.6,0-1.1-0.5-1.1-1.1v-28.7c0-0.6,0.5-1.1,1.1-1.1h5.8c0.6,0,1.1,0.5,1.1,1.1v28.7
			C519.2-67.5,518.7-67,518.1-67z"/>
	</g>
	<g>
		<line class="st8" x1="290.4" y1="-116.4" x2="290.4" y2="-78.5"/>
		<path class="st8" d="M313.3-104.2c13.1,12.6,13.5,33.5,0.9,46.6c-12.6,13.1-33.5,13.5-46.6,0.9c-13.1-12.6-13.5-33.5-0.9-46.6"/>
	</g>
</g>
</svg>
